<svg xmlns="http://www.w3.org/2000/svg" aria-hidden="true" style="position:absolute;width:0;height:0;overflow:hidden"><defs><symbol id="icon-clock" viewBox="0 0 32 32"><path fill="#2e2f42" d="M31.297 15.301C31.295 6.849 24.442-.002 15.989 0S.686 6.855.688 15.308a15.304 15.304 0 0 0 10.649 14.576.662.662 0 0 0 .529-.065.637.637 0 0 0 .283-.356l3.865-12.25a1.912 1.912 0 1 0-.84-3.635l-5.106-5.107a.637.637 0 0 0-.902.902l5.103 5.109a1.876 1.876 0 0 0 .536 2.309l-3.683 11.673C3.844 25.783.118 17.71 2.799 10.432S13.553-.572 20.831 2.109c7.278 2.681 11.004 10.754 8.323 18.032a14.042 14.042 0 0 1-7.462 7.973l-.398-1.874a.637.637 0 0 0-1.049-.344l-3.837 3.426a.637.637 0 0 0 .231 1.084l4.899 1.564a.638.638 0 0 0 .819-.74l-.391-1.839a15.255 15.255 0 0 0 9.329-14.089zm-15.305-.637a.638.638 0 1 1 0 1.277.638.638 0 0 1 0-1.277zm2.101 14.864 2.184-1.948.603 2.84-2.787-.892z" style="fill:var(--color1, #2e2f42)"/><path fill="#4d5ae5" d="M15.354 3.185V4.46a.638.638 0 1 0 1.276 0V3.185a.638.638 0 0 0-1.276 0zM3.876 14.664a.638.638 0 0 0 0 1.276h1.275a.638.638 0 1 0 0-1.276H3.876zM28.108 15.939a.638.638 0 1 0 0-1.276h-1.275a.638.638 0 0 0 0 1.276h1.275z" style="fill:var(--color2, #4d5ae5)"/></symbol><symbol id="icon-antenna" viewBox="0 0 32 32"><path fill="#2e2f42" d="m30.773 22.098-8.443-8.505.937-4.615c.242.094.499.144.758.146h.006a2.159 2.159 0 1 0-2.008-1.435l-4.96.605L8.972.161a.534.534 0 0 0-.377-.16.532.532 0 0 0-.373.155L6.709 1.66a.534.534 0 0 0 0 .754l.814.826a14.943 14.943 0 0 0 2.519 17.663.513.513 0 0 0 .146.098c-.034.18-.051.364-.052.547v6.187h-6.4a2.67 2.67 0 0 0-2.667 2.667v1.067c0 .295.239.533.533.533h24.533a.533.533 0 0 0 .533-.533v-1.067a2.67 2.67 0 0 0-2.667-2.667h-6.4v-2.742a15.09 15.09 0 0 0 3.049.32 14.854 14.854 0 0 0 7.04-1.783l.818.823a.534.534 0 0 0 .377.16.532.532 0 0 0 .373-.155l1.513-1.504a.534.534 0 0 0 0-.754zM23.28 6.233a1.067 1.067 0 1 1 .753 1.822h-.003a1.067 1.067 0 0 1-.747-1.823h-.002zm-1.256 3.505-.598 2.946-1.175-1.182 1.774-1.763zm-.605-.902-1.92 1.909-1.485-1.493 3.405-.415zM24.004 28.8a1.6 1.6 0 0 1 1.6 1.6v.533H2.137V30.4a1.6 1.6 0 0 1 1.6-1.6h20.267zm-7.467-2.133v1.067h-5.333v-1.067h5.333zM11.204 25.6v-4.053c0-1.294 1.196-2.347 2.667-2.347s2.667 1.053 2.667 2.347V25.6h-5.333zm6.4-1.696v-2.357c0-1.882-1.675-3.413-3.733-3.413a3.8 3.8 0 0 0-3.281 1.786A13.87 13.87 0 0 1 8.311 4.033l18.602 18.708a13.818 13.818 0 0 1-9.309 1.163zm11.289-.684L7.836 2.039l.755-.752 7.935 7.98c.004 0 .006.007.01.01l13.115 13.191-.757.752z" style="fill:var(--color1, #2e2f42)"/><path fill="#4d5ae5" d="M13.876 20.267h-.005a1.6 1.6 0 1 0-.004 3.2h.005a1.6 1.6 0 1 0 .004-3.2zm.373 1.978a.534.534 0 0 1-.752-.756.534.534 0 0 1 .373-.155.534.534 0 0 1 .374.911h.005z" style="fill:var(--color2, #4d5ae5)"/></symbol><symbol id="icon-diagram" viewBox="0 0 32 32"><path fill="#4d5ae5" d="M14.926 14.965h1.066v4.798h-1.066v-4.797zM19.19 17.097h1.066v2.665H19.19v-2.665zM10.661 18.696h1.066v1.066h-1.066v-1.066zM7.463 18.163h1.066v1.599H7.463v-1.599z" style="fill:var(--color2, #4d5ae5)"/><path fill="#2e2f42" d="M1.599 28.291h25.587a1.6 1.6 0 0 0 1.599-1.599V24.56a1.6 1.6 0 0 0-1.599-1.599h-.533V9.668L29.681 6.8a1.608 1.608 0 1 0-.746-.763L26.654 8.2V6.97a1.6 1.6 0 0 0-1.599-1.599H3.733A1.6 1.6 0 0 0 2.134 6.97v15.992h-.533a1.6 1.6 0 0 0-1.599 1.599v2.132a1.6 1.6 0 0 0 1.599 1.599zM30.384 4.837a.533.533 0 1 1 0 1.067.533.533 0 0 1 0-1.067zM3.198 6.969c0-.294.239-.533.533-.533h21.322c.294 0 .533.239.533.533v2.239l-1.066 1.013V8.035a.533.533 0 0 0-.533-.533H4.797a.533.533 0 0 0-.533.533v13.326c0 .294.239.533.533.533h19.19a.533.533 0 0 0 .533-.533v-9.674l1.066-1.01v12.284H3.198V6.969zm4.798 6.93a1.598 1.598 0 1 0 1.107 2.749l1.853.93a.532.532 0 0 0 .636-.123l3.939-4.431 3.872 2.901a.533.533 0 0 0 .686-.039l3.365-3.188v8.131H5.33V8.569h18.124v2.66l-3.771 3.572-3.904-2.927a.533.533 0 0 0-.718.072l-3.993 4.493-1.493-.746c.011-.064.018-.129.02-.193a1.6 1.6 0 0 0-1.599-1.599zm.533 1.599a.533.533 0 1 1-1.067 0 .533.533 0 0 1 1.067 0zm3.198 8.529h5.331v.533a.533.533 0 0 1-.533.533h-4.264a.533.533 0 0 1-.533-.533v-.533zm-10.661.533c0-.294.239-.533.533-.533h9.062v.533a1.6 1.6 0 0 0 1.599 1.599h4.264a1.6 1.6 0 0 0 1.599-1.599v-.533h9.062c.294 0 .533.239.533.533v2.132a.533.533 0 0 1-.533.533H1.598a.533.533 0 0 1-.533-.533V24.56z" style="fill:var(--color1, #2e2f42)"/></symbol><symbol id="icon-astronaut" viewBox="0 0 32 32"><path fill="#4d5ae5" d="M31.974 4.524a.534.534 0 0 0-.43-.363l-1.91-.278-.855-1.731c-.179-.365-.777-.365-.956 0l-.855 1.731-1.91.278a.535.535 0 0 0-.296.91l1.383 1.348-.326 1.903c-.034.2.048.402.212.522a.53.53 0 0 0 .562.04l1.709-.899 1.709.899a.536.536 0 0 0 .775-.563l-.326-1.903 1.383-1.348a.536.536 0 0 0 .135-.547zm-2.463 1.327a.534.534 0 0 0-.153.472l.191 1.114-1-.526a.533.533 0 0 0-.498 0l-1.001.526.191-1.114a.534.534 0 0 0-.153-.472l-.81-.789 1.119-.163a.532.532 0 0 0 .402-.292l.5-1.013.5 1.013a.535.535 0 0 0 .402.292l1.119.163-.809.789zM26.134 20.522h-1.067v1.067h1.067v-1.067zM26.134 22.656h-1.067v1.067h1.067v-1.067zM27.2 21.589h-1.067v1.067H27.2v-1.067zM25.067 21.589H24v1.067h1.067v-1.067zM22.4 26.389h-1.067v1.067H22.4v-1.067zM22.4 28.522h-1.067v1.067H22.4v-1.067zM23.467 27.456H22.4v1.067h1.067v-1.067zM21.333 27.456h-1.067v1.067h1.067v-1.067zM16 24.256h-1.067v1.067H16v-1.067zM16 26.389h-1.067v1.067H16v-1.067zM17.067 25.322H16v1.067h1.067v-1.067zM14.933 25.322h-1.067v1.067h1.067v-1.067zM5.867 6.122H4.8v1.067h1.067V6.122zM5.867 8.255H4.8v1.067h1.067V8.255z" style="fill:var(--color2, #4d5ae5)"/><path fill="#4d5ae5" d="M6.933 7.189H5.866v1.067h1.067V7.189zM4.8 7.189H3.733v1.067H4.8V7.189z" style="fill:var(--color2, #4d5ae5)"/><path fill="#2e2f42" d="M24.715 14.159a1.775 1.775 0 0 0-1.188-.705 1.778 1.778 0 0 0-1.34.352l-1.252.96-1.898 1.417-1.358-.541c2.421-1.086 4.114-3.508 4.114-6.32 0-3.823-3.123-6.933-6.961-6.933s-6.961 3.11-6.961 6.933a6.86 6.86 0 0 0 1.12 3.758l-2.764-.024h-.005c-.009 0-.015.004-.023.005a.515.515 0 0 0-.155.031l-.038.013c-.006.003-.013.003-.019.006l-3.233 1.596-.001.001-1.893.911a.397.397 0 0 0-.063.035 1.779 1.779 0 0 0-.598 2.295c.22.429.595.745 1.056.889a1.776 1.776 0 0 0 1.378-.128l1.388-.738 2.264-1.169 1.357-.008L2.2 22.211l-.002.001-1.339 1.333c-.316.315-.49.732-.49 1.178s.174.863.49 1.179c.325.323.752.485 1.179.485s.854-.162 1.18-.485l1.314-1.309 1.741-1.3.901.897-1.762 1.754-.002.001-1.339 1.333c-.316.315-.49.732-.49 1.178s.174.863.49 1.179c.325.323.753.485 1.18.485s.855-.162 1.18-.485l3.482-3.467.001-.002 1.01-1-.004-.004c.006-.006.015-.009.022-.015l5.166-5.658 3.471.494a.52.52 0 0 0 .262-.033c.018-.006.033-.015.05-.023.019-.01.039-.015.058-.027l3.213-2.133c.012-.008.018-.021.029-.029.013-.01.029-.014.041-.026l1.271-1.191c.662-.62.753-1.635.212-2.362zM2.13 17.77a.714.714 0 0 1-.558.052.717.717 0 0 1-.213-1.26l1.314-.632.449 1.313-.992.527zm3.498-1.828-1.548.8-.439-1.283 2.027-1.001-.04 1.484zm15.099-6.62a5.79 5.79 0 0 1-.599 2.559l-4.181-1.899a1.863 1.863 0 0 0-.788-1.388l1.464-4.86c2.378.756 4.105 2.974 4.105 5.588zm-11.789 0c0-3.235 2.644-5.867 5.894-5.867.253 0 .5.021.745.052l-1.432 4.754c-.019-.001-.037-.006-.057-.006-1.033 0-1.873.837-1.873 1.867s.84 1.867 1.873 1.867c.694 0 1.294-.383 1.618-.945l3.862 1.755a5.894 5.894 0 0 1-4.737 2.39c-3.25 0-5.894-2.632-5.894-5.867zm5.956.8c0 .441-.362.8-.806.8s-.806-.359-.806-.8c0-.441.362-.8.806-.8s.806.359.806.8zM2.465 25.146a.608.608 0 0 1-.854.001.592.592 0 0 1 0-.844l.962-.958.851.848-.959.955zm3.214 3.734a.608.608 0 0 1-.855.001.592.592 0 0 1 0-.844l.963-.959.852.848-.96.955zm3.481-3.469-.002.001-1.765 1.76-.852-.848 1.763-1.755.002-.001c.04-.04.065-.088.09-.135.007-.014.02-.026.026-.04.017-.041.019-.085.026-.129.003-.025.014-.047.014-.073 0-.036-.013-.07-.02-.106-.006-.032-.006-.065-.019-.095a.55.55 0 0 0-.091-.138c-.01-.012-.014-.027-.025-.038h-.001l-.001-.002-1.607-1.6c-.017-.017-.039-.024-.058-.038a.507.507 0 0 0-.087-.058.515.515 0 0 0-.093-.033.507.507 0 0 0-.103-.02.5.5 0 0 0-.095.005.53.53 0 0 0-.104.02.477.477 0 0 0-.094.045c-.02.011-.042.015-.061.029L4.23 23.486l-.901-.897 2.399-2.386 4.361 4.289-.928.919zm6.819-7.017c-.015-.002-.03.004-.045.003a.556.556 0 0 0-.3.075.492.492 0 0 0-.083.061c-.013.011-.028.017-.04.029l-4.698 5.146-4.328-4.257 2.833-2.818a.534.534 0 0 0-.379-.911v-.001l-2.219.013.028-1.607 3.104.027a6.947 6.947 0 0 0 4.981 2.101c.437 0 .864-.045 1.279-.123.04.032.079.065.13.085l2.41.96.152.758.178.885-3.003-.427zm4.041.178-.313-1.558 1.446-1.08.947 1.257-2.08 1.381zm3.754-2.831-.838.785-.931-1.236.831-.637a.735.735 0 0 1 .543-.143.718.718 0 0 1 .48.284.713.713 0 0 1-.085.947z" style="fill:var(--color1, #2e2f42)"/><path fill="#2e2f42" d="m13.602 18.544-2.143-2.133a.534.534 0 0 0-.753 0l-2.142 2.133a.537.537 0 0 0 0 .756l2.142 2.133a.536.536 0 0 0 .753 0l2.143-2.133a.535.535 0 0 0 0-.756zm-2.519 1.759-1.387-1.381 1.387-1.381 1.387 1.381-1.387 1.381zM17.164 5.071l-.258 1.036c.071.018 1.738.452 1.738 2.149h1.067c0-2.017-1.666-2.965-2.547-3.185zM19.711 9.322h-1.067v1.067h1.067V9.322z" style="fill:var(--color1, #2e2f42)"/></symbol><symbol id="icon-instagram" viewBox="0 0 32 32"><path fill="#f4f4fd" d="M31.968 9.408c-.074-1.7-.35-2.87-.744-3.882a7.844 7.844 0 0 0-1.849-2.839l-.001-.001A7.898 7.898 0 0 0 26.596.862l-.054-.018c-1.02-.394-2.18-.67-3.88-.744C20.946.02 20.4 0 16.06 0c-4.346 0-4.89.02-6.596.094-1.7.074-2.868.35-3.88.744a7.844 7.844 0 0 0-2.839 1.849l-.001.001A7.89 7.89 0 0 0 .918 5.466L.9 5.52C.506 6.54.232 7.7.156 9.4c-.08 1.714-.1 2.26-.1 6.602 0 4.346.02 4.89.094 6.596.074 1.7.35 2.87.744 3.882a7.886 7.886 0 0 0 1.85 2.838c.8.812 1.77 1.444 2.832 1.844 1.02.394 2.18.67 3.882.744 1.706.076 2.25.094 6.596.094 4.344 0 4.888-.02 6.594-.094 1.7-.074 2.87-.35 3.882-.744a8.233 8.233 0 0 0 4.663-4.627l.019-.055c.394-1.02.67-2.18.744-3.882.076-1.706.094-2.25.094-6.596 0-4.344-.006-4.888-.08-6.594zm-2.88 13.064c-.07 1.564-.332 2.408-.552 2.97a5.34 5.34 0 0 1-3.002 3.027l-.036.013c-.562.218-1.412.48-2.968.548-1.688.076-2.194.094-6.464.094s-4.782-.02-6.464-.094c-1.564-.068-2.408-.33-2.97-.55a4.947 4.947 0 0 1-1.837-1.193l-.001-.001a5.001 5.001 0 0 1-1.183-1.804l-.011-.034c-.22-.562-.48-1.412-.55-2.968-.074-1.688-.094-2.196-.094-6.464 0-4.27.02-4.782.094-6.464.07-1.564.332-2.408.55-2.97a4.888 4.888 0 0 1 1.2-1.838A4.96 4.96 0 0 1 6.64 3.55c.56-.22 1.412-.48 2.968-.55 1.688-.074 2.194-.094 6.464-.094 4.276 0 4.78.02 6.464.094 1.562.07 2.406.332 2.968.55a4.929 4.929 0 0 1 1.84 1.194 4.98 4.98 0 0 1 1.192 1.84c.22.56.482 1.41.55 2.968.076 1.688.094 2.194.094 6.464s-.018 4.77-.092 6.456z" style="fill:var(--color3, #f4f4fd)"/><path fill="#f4f4fd" d="M16.06 7.782a8.222 8.222 0 0 0-.01 16.44h.009a8.222 8.222 0 0 0 .01-16.44h-.009zm0 13.554a5.334 5.334 0 1 1 0-10.668 5.334 5.334 0 1 1 0 10.668zM26.524 7.458a1.92 1.92 0 0 1-3.84 0 1.92 1.92 0 0 1 3.84 0z" style="fill:var(--color3, #f4f4fd)"/></symbol><symbol id="icon-twitter" viewBox="0 0 32 32"><path fill="#f4f4fd" d="M32 6.078c-1.1.494-2.376.858-3.712 1.029l-.068.007a6.56 6.56 0 0 0 2.873-3.58l.013-.046a12.858 12.858 0 0 1-4.076 1.574l-.084.014A6.56 6.56 0 0 0 15.598 9.56c0 .52.044 1.02.152 1.496A18.554 18.554 0 0 1 2.255 4.228l-.027-.034a6.496 6.496 0 0 0-.895 3.311 6.562 6.562 0 0 0 2.888 5.442l.023.015a6.465 6.465 0 0 1-2.997-.823l.033.017v.072a6.592 6.592 0 0 0 5.213 6.438l.043.008a6.408 6.408 0 0 1-1.669.216h-.054.003a5.842 5.842 0 0 1-1.279-.118l.037.006c.873 2.624 3.273 4.496 6.121 4.57h.009a13.098 13.098 0 0 1-8.12 2.798h-.015.001c-.538 0-1.054-.024-1.57-.09C2.826 27.902 6.287 29 10.004 29h.063-.003c12.072 0 18.672-10 18.672-18.668 0-.29-.01-.57-.024-.848a13.186 13.186 0 0 0 3.258-3.359l.03-.047z" style="fill:var(--color3, #f4f4fd)"/></symbol><symbol id="icon-facebook" viewBox="0 0 32 32"><path fill="#f4f4fd" d="M21.33 5.314h2.92V.226A36.551 36.551 0 0 0 20.125 0h-.138.007C15.782 0 12.9 2.65 12.9 7.52V12H8.25v5.688h4.648V32h5.698V17.69h4.46l.708-5.69h-5.17V8.08c.002-1.644.444-2.768 2.736-2.768z" style="fill:var(--color3, #f4f4fd)"/></symbol><symbol id="icon-linkedin" viewBox="0 0 32 32"><path fill="#f4f4fd" d="M31.992 32H32V20.26c0-5.74-1.236-10.164-7.948-10.164-3.226 0-5.392 1.772-6.276 3.45h-.094v-2.912H11.32V32h6.628V21.42c0-2.784.528-5.476 3.976-5.476 3.4 0 3.45 3.178 3.45 5.656V32h6.62zM.528 10.636h6.634V32H.528V10.636zM3.842 0C1.722 0 .002 1.72.002 3.84s1.72 3.88 3.84 3.88c2.122 0 3.844-1.76 3.844-3.88S5.96 0 3.84 0z" style="fill:var(--color3, #f4f4fd)"/></symbol><symbol id="icon-company-1" viewBox="0 0 32 32"><path  d="m6.128 0 4.771 4.545-8.857-.004v22.053h23.149v-8.432l4.766 4.541V0H6.127zm18.854 17.629L11.454 4.74h13.528v12.889zm-4.2 5.739H5.706V8.536h1.066v13.828h14.011v1.005zm-12.07 7.313-.562-1.156h-.464l.814 1.529v.891h.42v-.892l.815-1.529h-.462l-.562 1.155zm2.071-1.156h.099l.914 2.42h-.438l-.196-.566h-.937l-.195.566h-.437l.911-2.42h.279zm-.444 1.523h.709l-.354-1.027-.354 1.027zm2.925-.402-.041-.052-.011-.015a1.267 1.267 0 0 1-.142-.23l-.003-.008a.58.58 0 0 1-.051-.239v-.001c0-.126.026-.234.078-.325s.128-.162.218-.208l.003-.001a.71.71 0 0 1 .334-.075.64.64 0 0 1 .318.075.524.524 0 0 1 .237.673l.001-.003a.603.603 0 0 1-.116.173 1.198 1.198 0 0 1-.165.146l-.003.002-.168.123.479.565a.94.94 0 0 0 .104-.435v-.018.001h.346c0 .118-.012.229-.035.334a1.04 1.04 0 0 1-.179.403l.002-.003.354.419h-.463l-.141-.165a.933.933 0 0 1-.242.134l-.007.002c-.109.04-.235.063-.367.063h-.009a.916.916 0 0 1-.417-.088.664.664 0 0 1-.271-.24l-.002-.003a.656.656 0 0 1-.095-.343v-.012.001c0-.099.02-.185.061-.259a.805.805 0 0 1 .168-.21c.066-.059.14-.118.225-.178zm.199.244-.05.036a.62.62 0 0 0-.13.136l-.001.002a.407.407 0 0 0-.022.411l-.001-.002a.358.358 0 0 0 .133.137l.002.001c.06.032.13.051.205.051h.013-.001a.62.62 0 0 0 .392-.139l-.002.001-.538-.633zm.095-.442.148-.099a.536.536 0 0 0 .149-.135l.001-.001a.302.302 0 0 0 .045-.159v-.012.001a.24.24 0 0 0-.241-.233h-.014.001-.007a.245.245 0 0 0-.223.142l-.001.002a.34.34 0 0 0 .011.298l-.001-.002c.025.052.06.107.105.165l.027.035zm4.235.71h-.416a.76.76 0 0 1-.078.272l.002-.004a.386.386 0 0 1-.166.164l-.002.001a.621.621 0 0 1-.262.057l-.027-.001h.001-.014a.508.508 0 0 1-.24-.06l.003.001a.48.48 0 0 1-.172-.163l-.001-.002a.78.78 0 0 1-.098-.249l-.001-.005a1.599 1.599 0 0 1-.032-.32v-.013.001-.204c0-.129.012-.243.035-.343s.06-.185.108-.254a.47.47 0 0 1 .176-.155l.003-.001a.535.535 0 0 1 .236-.053h.014-.001c.116 0 .21.02.283.06s.126.095.163.17a.778.778 0 0 1 .073.267h.415a1.037 1.037 0 0 0-.139-.435l.003.005a.771.771 0 0 0-.305-.292l-.004-.002a1.01 1.01 0 0 0-.457-.107h-.032.002c-.152 0-.289.027-.411.08s-.225.129-.311.232a1.011 1.011 0 0 0-.197.353l-.002.007c-.046.14-.068.298-.068.472v.202c0 .174.022.331.067.472s.111.261.196.361a.878.878 0 0 0 .307.229.99.99 0 0 0 .404.08c.195 0 .361-.035.497-.106s.242-.168.317-.291a.962.962 0 0 0 .133-.424zm2.308-.356v-.133c0-.182-.024-.347-.073-.49a1.051 1.051 0 0 0-.206-.373l.001.001a.88.88 0 0 0-.312-.232l-.006-.002a1.006 1.006 0 0 0-.409-.082.983.983 0 0 0-.407.082.88.88 0 0 0-.318.234 1.101 1.101 0 0 0-.206.371c-.047.14-.074.301-.074.468v.023-.001.133c0 .183.024.347.074.492.048.143.119.266.21.372l-.001-.001c.09.102.196.18.317.235.123.053.259.08.408.08s.286-.027.409-.08a.873.873 0 0 0 .316-.235c.088-.102.157-.225.204-.37s.072-.309.072-.492zm-.416-.136v.136c0 .136-.014.255-.04.36a.783.783 0 0 1-.115.267l.002-.003a.503.503 0 0 1-.18.16l-.003.001a.54.54 0 0 1-.237.053H19.1h.001-.011a.545.545 0 0 1-.239-.055l.003.001a.541.541 0 0 1-.185-.16l-.001-.002a.789.789 0 0 1-.115-.259l-.001-.005a1.405 1.405 0 0 1-.04-.341v-.02.001-.136c0-.135.014-.254.04-.357s.065-.191.115-.261a.5.5 0 0 1 .181-.158l.003-.001a.527.527 0 0 1 .237-.055h.01c.092 0 .174.018.248.054s.134.088.184.16a.72.72 0 0 1 .115.261c.027.104.04.223.04.357z" style="fill:"/></symbol><symbol id="icon-company-2" viewBox="0 0 32 32"><path fill="" d="M14.224 1.806h-.084a9.985 9.985 0 0 0-.388-.014h-.28c-.244 0-.494.006-.741.018l-.028-.001-.029.001h.001a17.353 17.353 0 0 0-6.576 1.696l.104-.045-.266.128v13.626l.623-.212a23.32 23.32 0 0 1 1.731-.513c1.488-.398 3.202-.638 4.967-.661h.014v1.79c-.223.001-.439.007-.655.018h-.052a20.051 20.051 0 0 0-3.971.619l.139-.031a19.399 19.399 0 0 0-4.666 1.83l.1-.051V2.529A17.896 17.896 0 0 1 8.832.608L8.959.58a17.862 17.862 0 0 1 4.51-.582h.267c.314.008.622.022.91.044.829.06 1.597.187 2.339.378l-.09-.02v1.762a13.17 13.17 0 0 0-2.134-.326l-.045-.003-.044-.004c-.152-.013-.304-.026-.446-.026zm3.101 1.801c.391.03.796.044 1.205.044a19.413 19.413 0 0 0 4.881-.639l-.135.03a19.492 19.492 0 0 0 4.665-1.831l-.101.051v17.163a17.972 17.972 0 0 1-4.664 1.921l-.127.028a17.962 17.962 0 0 1-4.511.581h-.115c-1.177 0-2.319-.147-3.409-.425l.095.021V3.276c.265.062.537.118.814.164.455.077.934.133 1.401.167zm8.735.133-.623.209c-.572.193-1.151.365-1.731.518-1.551.415-3.332.657-5.169.663h-.004c-.406 0-.78-.011-1.141-.034l-.497-.033V19.08l.426.037c.395.035.803.052 1.214.052a16.554 16.554 0 0 0 4.189-.553l-.116.026a16.96 16.96 0 0 0 3.285-1.189l-.102.044.266-.128V3.739zM5.377 25.977a.916.916 0 0 0-.661-.281l-.034.001h.002-.014c-.139 0-.272.028-.393.078l.007-.003a.904.904 0 0 0-.51.512l-.002.006a1.001 1.001 0 0 0-.071.386v2.335c-.006.164.026.328.092.479.055.12.135.226.234.313a.824.824 0 0 0 .32.166c.114.031.231.048.349.048a.985.985 0 0 0 .968-.982v-.261h-.611v.222c0 .07-.013.136-.037.198l.001-.004a.392.392 0 0 1-.088.132.426.426 0 0 1-.255.089.308.308 0 0 1-.286-.125l-.001-.001a.548.548 0 0 1-.082-.289l.001-.024v.001-2.177a.74.74 0 0 1 .075-.349.31.31 0 0 1 .262-.143l.038.002h-.002.012c.107 0 .201.052.26.131l.001.001a.493.493 0 0 1 .101.3v.014-.001.202h.604v-.249c0-.143-.027-.28-.077-.405l.003.007a.955.955 0 0 0-.205-.329zm3.625-.026a1.051 1.051 0 0 0-1.058-.191.965.965 0 0 0-.557.511l-.002.006a1.08 1.08 0 0 0-.089.452v2.239c-.004.158.026.314.089.458a.888.888 0 0 0 .236.313.964.964 0 0 0 .322.197 1.049 1.049 0 0 0 1.059-.198l-.001.001a.948.948 0 0 0 .23-.313c.063-.144.093-.301.089-.458v-2.259c0-.156-.033-.305-.092-.439l.003.007a1.016 1.016 0 0 0-.23-.327zm-.284 3.018.002.035a.398.398 0 0 1-.123.289.446.446 0 0 1-.575 0l.001.001a.398.398 0 0 1-.121-.326v.002-2.239l-.001-.034a.4.4 0 0 1 .123-.289.446.446 0 0 1 .575 0l-.001-.001a.398.398 0 0 1 .121.326v-.002 2.24zm5.046 1v-4.24h-.586l-.771 2.244h-.01l-.777-2.244h-.58v4.239h.606V27.39h.011l.593 1.823h.302l.598-1.823h.01v2.578h.606zm3.441-3.942a.834.834 0 0 0-.342-.232 1.31 1.31 0 0 0-.416-.066h-.024.001-.9v4.24h.604v-1.656h.311c.189.009.376-.031.545-.116a.88.88 0 0 0 .329-.32l.002-.004a1 1 0 0 0 .138-.369c.021-.133.033-.287.033-.444v-.04.002a2.426 2.426 0 0 0-.059-.606.906.906 0 0 0-.223-.39zm-.311 1.292a.538.538 0 0 1-.057.224l.001-.003a.342.342 0 0 1-.154.147l-.002.001a.617.617 0 0 1-.254.054l-.033-.001h.002-.276V26.3h.311l.029-.001c.088 0 .172.02.247.055l-.004-.002a.35.35 0 0 1 .141.154l.001.002a.62.62 0 0 1 .053.236v.282c0 .098.006.201 0 .291h-.006zm3.172-1.59h-.495l-.934 4.24h.604l.177-.911h.823l.178.911h.604l-.958-4.24zm-.557 2.752.297-1.537h.011l.295 1.537h-.604zm4.46-.198h-.011l-.912-2.554h-.581v4.24h.604v-2.55h.012l.923 2.549h.568v-4.239h-.604v2.554zm3.691-2.554-.486 1.686h-.012l-.486-1.686h-.639l.83 2.448v1.791h.604v-1.791l.83-2.447h-.64zM3.692 31.166h.291v.817h.198v-.817h.289v-.167h-.778v.168zm2.448-.168-.382.985h.21l.081-.224h.392l.084.224h.215l-.391-.985h-.21zm-.031.595.134-.365.134.365h-.268zm2.45.027h.228v.127a.378.378 0 0 1-.234.083h-.014a.25.25 0 0 1-.195-.094.406.406 0 0 1-.073-.234l.001-.023v.001c0-.219.095-.329.283-.329l.021-.001c.097 0 .178.067.201.157v.001l.194-.038c-.042-.192-.18-.289-.417-.289h-.013a.492.492 0 0 0-.331.127.48.48 0 0 0-.141.38v-.002.023c0 .132.048.254.127.347l-.001-.001c.087.09.209.146.343.146L8.57 32h-.001.016c.155 0 .296-.06.402-.157v-.388h-.426v.166zm2.471-.622h-.199v.985h.689v-.167h-.49v-.817zm2.089 0h-.199v.985h.199v-.985zm2.042.657-.404-.657h-.193v.985h.185v-.643l.396.643h.198v-.985h-.182v.658zm1.846-.106h.49v-.167h-.49v-.215h.527v-.168h-.727v.985h.747v-.167h-.548v-.266zm4.477-.163h-.388v-.388h-.197v.984h.197v-.431h.388v.431h.198v-.985h-.198v.388zm1.858.163h.492v-.167h-.492v-.215h.529v-.168h-.726v.985h.746v-.167h-.548v-.266zm2.518.001c.171-.027.258-.118.258-.274a.23.23 0 0 0-.096-.219h-.001a.555.555 0 0 0-.25-.059l-.04.001h.002-.417v.984h.198v-.412h.055c.039 0 .076.008.109.023l-.002-.001a.201.201 0 0 1 .07.072l.215.313h.236l-.12-.192a.704.704 0 0 0-.215-.235l-.002-.002zm-.199-.137h-.146v-.247h.156a.515.515 0 0 1 .205.024l-.004-.001a.13.13 0 0 1-.009.2.537.537 0 0 1-.164.025l-.039-.001h.002zm2.099.136h.49v-.167h-.49v-.215h.529v-.168h-.729v.985h.747v-.167h-.548v-.266z" style="fill:"/></symbol><symbol id="icon-company-3" viewBox="0 0 32 32"><path fill="" d="M4.953 30.344c.012 0 .023.003.033.007.011.004.021.01.029.017l.16.151a1.317 1.317 0 0 1-.442.283l-.009.003a1.785 1.785 0 0 1-.641.103h-.034c-.204 0-.4-.035-.581-.1l.012.004a1.351 1.351 0 0 1-.454-.271l.001.001a1.214 1.214 0 0 1-.29-.411l-.003-.008a1.348 1.348 0 0 1-.103-.521v-.016.001-.017c0-.189.041-.368.114-.529l-.003.008c.07-.156.176-.298.311-.418a1.44 1.44 0 0 1 .471-.27l.01-.003c.179-.061.385-.096.6-.096h.022-.001a1.72 1.72 0 0 1 .576.087 1.6 1.6 0 0 1 .432.242l-.135.161a.134.134 0 0 1-.034.029h-.001a.092.092 0 0 1-.047.013h-.008a.132.132 0 0 1-.059-.018h.001l-.073-.043-.1-.055a1.158 1.158 0 0 0-.31-.096l-.007-.001a1.361 1.361 0 0 0-.219-.017H4.15h.001-.016c-.154 0-.302.026-.439.075l.009-.003a1.03 1.03 0 0 0-.35.203l.001-.001a.95.95 0 0 0-.227.323 1.05 1.05 0 0 0-.082.411v.015-.001.016c0 .15.03.293.085.423l-.003-.007a.924.924 0 0 0 .55.518l.006.002c.131.047.271.07.413.068a1.82 1.82 0 0 0 .245-.014.98.98 0 0 0 .532-.222l-.002.001a.126.126 0 0 1 .076-.028zm4.637-.759c.003.182-.034.364-.108.534a1.164 1.164 0 0 1-.301.413l-.001.001a1.38 1.38 0 0 1-.474.271 1.98 1.98 0 0 1-1.234-.004l.014.004a1.408 1.408 0 0 1-.474-.274l.002.001a1.224 1.224 0 0 1-.302-.41l-.003-.008a1.36 1.36 0 0 1 .003-1.078l-.003.009a1.25 1.25 0 0 1 .305-.42c.135-.114.295-.204.472-.262a1.943 1.943 0 0 1 1.22 0c.178.062.34.154.473.273.253.226.412.553.412.918v.034-.002zm-.422 0a1.096 1.096 0 0 0-.076-.429.886.886 0 0 0-.548-.521l-.006-.002a1.449 1.449 0 0 0-.898.003l.01-.003a.96.96 0 0 0-.34.203l.001-.001a.876.876 0 0 0-.215.314l-.002.006c-.102.28-.102.579 0 .858a.867.867 0 0 0 .217.321.983.983 0 0 0 .34.201c.286.092.601.092.887 0a.94.94 0 0 0 .339-.201.894.894 0 0 0 .215-.321c.054-.138.08-.284.076-.429zm3.586.451.041.096a2.886 2.886 0 0 1 .099-.191l1.025-1.593c.02-.028.039-.045.058-.051s.044-.008.069-.008h.017-.001.303v2.591h-.359v-1.985l-.001-.045.002-.047v.002l-1.032 1.615a.155.155 0 0 1-.06.059h-.001a.178.178 0 0 1-.087.022H12.766a.181.181 0 0 1-.087-.022h.001a.141.141 0 0 1-.059-.057v-.001l-1.062-1.626v2.08h-.348v-2.586h.316c.025 0 .05.003.073.009h-.002c.024.01.043.027.056.049v.001l1.047 1.595a.506.506 0 0 1 .053.093zm3.861-.129v.97h-.401v-2.588h.895c.169-.003.338.016.5.057.13.031.25.086.353.161a.672.672 0 0 1 .199.25l.002.004a.759.759 0 0 1 .068.331v.012a.72.72 0 0 1-.289.577l-.002.001c-.101.076-.22.135-.349.17l-.007.002a1.739 1.739 0 0 1-.483.06l-.486-.007zm0-.278h.486a1.12 1.12 0 0 0 .311-.04.69.69 0 0 0 .227-.113l-.002.001a.488.488 0 0 0 .185-.383v-.006a.418.418 0 0 0-.042-.213l.001.003a.504.504 0 0 0-.139-.176l-.001-.001a.86.86 0 0 0-.476-.141l-.066.002h.003-.486v1.067zm5.396 1.252h-.324a.155.155 0 0 1-.083-.024h.001a.156.156 0 0 1-.052-.059v-.001l-.273-.626h-1.372l-.283.625a.141.141 0 0 1-.05.058.156.156 0 0 1-.086.026h-.322l1.204-2.591h.417l1.221 2.591zm-1.988-.962h1.132l-.478-1.055a1.632 1.632 0 0 1-.088-.232l-.003-.012-.046.135c-.015.041-.03.079-.044.109l-.474 1.055zm3.722-1.618a.16.16 0 0 1 .059.046l1.757 1.953v-2.012h.359v2.591H25.711a.19.19 0 0 1-.076-.015h.001a.222.222 0 0 1-.064-.049l-1.754-1.952.001.045-.002.047v-.002 1.926h-.359v-2.591h.212a.184.184 0 0 1 .073.012zm5.135 1.549v1.029h-.401V29.85l-1.11-1.561h.368c.029 0 .055.008.078.022h-.001c.022.017.04.036.054.058l.695 1.007a.972.972 0 0 1 .12.223l.002.007.052-.111c.02-.041.043-.08.068-.119l.685-1.014a.297.297 0 0 1 .051-.055.136.136 0 0 1 .079-.026h.37l-1.113 1.568zm-16.325-5.91c.175.019.351.034.53.048 2.708-1.036 5-2.729 6.588-4.872s2.401-4.636 2.339-7.171l-2.985-2.551c.607 2.699.323 5.489-.82 8.058-1.143 2.568-3.1 4.815-5.652 6.487z" style="fill:var(--color4, )"/><path fill="" d="m11.489 23.821.08.014c2.727-1.667 4.807-3.994 5.969-6.681s1.355-5.61.552-8.392l-4.252-3.633c1.72 2.986 2.412 6.328 1.996 9.636s-1.923 6.45-4.345 9.056zm14.42-8.881c-.722 2.785-2.477 5.297-5.003 7.164-.688.515-1.467 1-2.286 1.416l-.091.042c2.057-.516 3.948-1.43 5.526-2.669s2.803-2.772 3.578-4.48l-1.724-1.472z" style="fill:var(--color4, )"/><path fill="" d="m25.233 14.529-2.455-2.097c-.047 2.392-.843 4.729-2.305 6.769s-3.537 3.708-6.009 4.831h.012c.551 0 1.101-.028 1.648-.084 2.311-.806 4.351-2.087 5.94-3.731s2.678-3.598 3.168-5.687zM11.844 3.597 8.916 1.091c-2.618.865-4.871 2.384-6.461 4.361C.863 7.428.007 9.768 0 12.167c.009 2.649 1.054 5.222 2.967 7.308s4.585 3.567 7.594 4.21c2.687-2.796 4.26-6.252 4.49-9.865s-.893-7.193-3.207-10.223zM32 14.144c-.011-3.145-1.477-6.157-4.08-8.38-2.601-2.223-6.128-3.476-9.808-3.486h-.031c-1.767 0-3.466.289-5.053.823l.112-.033L31.073 18.39c.584-1.247.925-2.707.927-4.247v-.001z" style="fill:"/></symbol><symbol id="icon-company-5" viewBox="0 0 32 32"><path fill="" d="M2.434 23.808a.72.72 0 0 1 .188.492c.006.116-.017.233-.067.34s-.127.203-.224.28a1.344 1.344 0 0 1-.849.226h.004H0v-3.115h1.455a1.338 1.338 0 0 1 .812.21l-.005-.003c.094.071.169.16.217.262s.071.211.065.322a.67.67 0 0 1-.169.476.807.807 0 0 1-.437.243l-.005.001a.869.869 0 0 1 .502.266zm-1.743-.47h.622a.634.634 0 0 0 .395-.103.38.38 0 0 0 .106-.136l.001-.002a.33.33 0 0 0 .028-.135l-.002-.033v.001a.35.35 0 0 0-.029-.167l.001.002a.389.389 0 0 0-.103-.139h-.001a.645.645 0 0 0-.357-.107l-.053.002h.002-.613v.817zm1.079 1.195a.396.396 0 0 0 .114-.14l.001-.002a.348.348 0 0 0 .033-.15l-.001-.025v.001l.001-.022a.354.354 0 0 0-.036-.156l.001.002a.398.398 0 0 0-.116-.143l-.001-.001a.69.69 0 0 0-.381-.114l-.043.001h.002-.653v.857h.661a.707.707 0 0 0 .418-.108zm3.639.615-.81-1.218h-.305v1.217h-.696v-3.115h1.318a1.388 1.388 0 0 1 .922.268l-.004-.003c.184.169.296.392.313.628s-.058.47-.215.66c-.163.168-.385.28-.629.317l.862 1.244h-.757zm-1.114-1.642h.569c.396 0 .593-.157.593-.472l.001-.025a.418.418 0 0 0-.034-.166l.001.003a.464.464 0 0 0-.113-.161.66.66 0 0 0-.45-.125h.003-.577l.007.948zm4.921 1.015H7.828l-.245.627h-.73l1.275-3.08h.789l1.269 3.08h-.73l-.24-.627zm-.186-.472-.507-1.315-.507 1.315H9.03zm4.95 1.099h-.691l-1.55-2.118v2.118h-.69v-3.115h.69l1.55 2.13v-2.13h.691v3.115zm3.945-.746a1.45 1.45 0 0 1-.616.546l-.009.004a2.224 2.224 0 0 1-.972.196h-1.231v-3.115h1.231l.057-.001c.331 0 .645.071.929.198l-.014-.006c.265.12.483.31.625.544a1.66 1.66 0 0 1-.005 1.642l.004-.008zm-.791-.074c.187-.192.304-.454.306-.743a1.073 1.073 0 0 0-.306-.743 1.28 1.28 0 0 0-.869-.265h.004-.48v2.017h.48a1.287 1.287 0 0 0 .868-.266l-.003.002zM9.648 4.707s8.923 3.032 8.734 7.421v7.423s-8.916-3.034-8.731-7.423l-.003-7.421zm16.683 13.106A13.087 13.087 0 0 1 32 15.932v-2.324c-2.345.813-4.333 2.288-5.669 4.204z" style="fill:var(--color4, )"/><path fill="" d="M25.319 18.513c1.379-2.501 3.77-4.43 6.681-5.391V6.426s-12.708 4.32-12.439 10.57v10.568s.566-.193 1.457-.556c0-.338 0-.679.041-1.021.263-2.901 1.795-5.59 4.26-7.474z" style="fill:var(--color4, )"/><path fill="" d="M24.11 22.439a9.954 9.954 0 0 1 .465-2.234l-.02.07c-1.534 1.627-2.464 3.647-2.658 5.775-.018.201-.028.401-.034.608a36.082 36.082 0 0 0 2.655-1.26l-.211.101a9.622 9.622 0 0 1-.239-2.16c0-.317.015-.631.044-.94l-.003.04zm.505.038a9.523 9.523 0 0 0 .168 2.832l-.011-.062c3.472-1.87 7.373-4.759 7.222-8.252v-.305c-2.48.25-4.801 1.227-6.606 2.779a9.325 9.325 0 0 0-.771 2.97l-.003.037z" style="fill:"/></symbol><symbol id="icon-company-4" viewBox="0 0 32 32"><path fill="" d="M4.982 12.959h-.001c-.909 0-1.646.664-1.646 1.484v.001c0 .819.737 1.484 1.646 1.484h.001c.909 0 1.646-.664 1.646-1.484v-.001c0-.819-.737-1.484-1.646-1.484zM17.128 12.485c-.003-1.138-.505-2.229-1.398-3.034s-2.102-1.258-3.364-1.261c-1.263.002-2.473.455-3.366 1.26s-1.396 1.896-1.398 3.034v6.276s9.525-.956 9.526-6.275v-.001zM0 20.821c.002.792.352 1.551.973 2.111s1.463.876 2.341.878c.878-.002 1.72-.318 2.34-.878s.971-1.318.973-2.11v-4.367s-6.628.666-6.628 4.366zm3.314.782c-.172 0-.339-.046-.482-.132s-.254-.208-.32-.351-.083-.3-.049-.452c.033-.152.116-.291.237-.401s.276-.184.444-.214c.168-.03.343-.015.501.045s.294.16.389.288a.732.732 0 0 1 .081.735.775.775 0 0 1-.188.255c-.081.073-.176.131-.282.17s-.219.06-.333.06v-.003zM9.375 20.196v1.625H9.04v-1.625h.335zm.647.694v.261h-.739v-.261h.739zm.078-.694v.262h-.817v-.262h.817zm1.529.775v.077c0 .123-.017.234-.05.333s-.081.182-.142.251c-.061.068-.134.121-.219.157s-.177.055-.28.055c-.102 0-.195-.018-.28-.055s-.157-.089-.219-.157c-.062-.069-.11-.153-.144-.251s-.05-.209-.05-.333v-.077c0-.124.017-.235.05-.333s.081-.182.142-.251c.062-.069.135-.122.219-.158s.178-.055.28-.055c.103 0 .196.018.28.055s.158.089.219.158c.062.069.109.153.143.251s.051.208.051.333zm-.338.077v-.079c0-.086-.008-.162-.023-.228s-.039-.121-.069-.165-.068-.078-.112-.1c-.044-.023-.094-.035-.151-.035s-.107.012-.151.035c-.043.022-.08.056-.11.1s-.052.1-.068.165a.97.97 0 0 0-.023.228v.079c0 .086.008.161.023.228s.039.121.069.166a.309.309 0 0 0 .263.137c.057 0 .107-.012.151-.035s.081-.057.11-.102c.03-.045.052-.101.068-.166s.023-.142.023-.228zm1.425.348c0-.029-.004-.055-.013-.078s-.024-.045-.047-.065c-.023-.02-.055-.04-.097-.059s-.096-.039-.162-.06c-.074-.024-.144-.051-.21-.08s-.123-.064-.174-.104c-.05-.04-.089-.087-.118-.14s-.042-.114-.042-.184c0-.068.015-.129.045-.184s.071-.103.125-.143c.054-.04.117-.071.19-.093s.154-.032.242-.032c.12 0 .224.022.314.065s.159.102.208.177c.05.075.075.161.075.258h-.333c0-.048-.01-.089-.03-.125s-.049-.065-.089-.086a.315.315 0 0 0-.15-.031c-.058 0-.106.009-.145.027s-.068.041-.087.07a.176.176 0 0 0-.029.098c0 .027.007.052.02.075s.035.043.063.062.061.038.102.055c.04.017.087.034.139.05.089.027.166.057.233.09s.124.071.17.113c.045.042.08.089.103.142s.035.113.035.18c0 .071-.014.134-.041.19s-.067.103-.119.142c-.052.039-.114.068-.186.088s-.153.03-.242.03c-.08 0-.16-.01-.238-.031s-.149-.054-.213-.097a.474.474 0 0 1-.209-.403h.336c0 .051.008.093.023.128s.038.063.066.085c.029.022.063.037.103.047s.084.015.132.015c.058 0 .106-.008.143-.025s.066-.039.084-.068a.175.175 0 0 0 .028-.098zm1.289-1.2v1.625h-.334v-1.625h.334zm.5 0v.262h-1.326v-.262h1.326zm1.282 1.364v.261h-.865v-.261h.865zm-.756-1.364v1.625h-.335v-1.625h.335zm.643.662v.254h-.752v-.254h.752zm.112-.662v.262h-.864v-.262h.864zm.196 0h.606c.124 0 .231.019.32.056s.159.092.208.165.073.163.073.269c0 .087-.015.162-.045.224s-.07.113-.124.155a.633.633 0 0 1-.186.098l-.106.056h-.527l-.002-.261h.392c.059 0 .108-.01.146-.031s.068-.05.087-.087c.02-.037.03-.08.03-.129 0-.052-.01-.097-.029-.135s-.049-.067-.088-.087-.089-.03-.148-.03h-.271v1.363h-.335v-1.625zm.908 1.625-.371-.724.354-.002.375.711v.016h-.358zm1.758-.579h-.414v-.261h.414c.064 0 .116-.01.156-.031s.07-.051.088-.089a.327.327 0 0 0 0-.263c-.019-.042-.048-.075-.088-.1s-.092-.038-.156-.038h-.298v1.363h-.335v-1.625h.633c.127 0 .236.023.327.069a.502.502 0 0 1 .283.465c0 .105-.024.196-.073.272s-.118.136-.21.177a.776.776 0 0 1-.327.062zm1.931.318v.261h-.865v-.261h.865zm-.756-1.364v1.625h-.335v-1.625h.335zm.643.662v.254h-.752v-.254h.752zm.112-.662v.262h-.864v-.262h.864zm.945 0v1.625h-.334v-1.625h.334zm.5 0v.262h-1.326v-.262h1.326zm1.282 1.364v.261h-.865v-.261h.865zm-.756-1.364v1.625h-.335v-1.625h.335zm.643.662v.254h-.752v-.254h.752zm.111-.662v.262h-.864v-.262h.864zm.197 0h.606c.124 0 .231.019.32.056s.159.092.208.165a.48.48 0 0 1 .073.269c0 .087-.015.162-.045.224s-.07.113-.124.155a.633.633 0 0 1-.186.098l-.106.056h-.527l-.002-.261h.392c.059 0 .108-.01.146-.031s.068-.05.087-.087c.02-.037.03-.08.03-.129 0-.052-.01-.097-.029-.135s-.049-.067-.088-.087a.325.325 0 0 0-.148-.03h-.271v1.363h-.335v-1.625zm.908 1.625-.371-.724.354-.002.375.711v.016h-.358zm1.402-.425c0-.029-.005-.055-.013-.078s-.024-.045-.047-.065c-.023-.02-.055-.04-.097-.059s-.096-.039-.162-.06c-.074-.024-.144-.051-.21-.08s-.123-.064-.174-.104c-.05-.04-.089-.087-.118-.14s-.042-.114-.042-.184c0-.068.015-.129.045-.184s.071-.103.125-.143c.054-.04.117-.071.19-.093s.154-.032.242-.032c.12 0 .224.022.314.065s.158.102.208.177c.05.075.075.161.075.258h-.333c0-.048-.01-.089-.03-.125s-.049-.065-.089-.086a.315.315 0 0 0-.15-.031c-.058 0-.106.009-.145.027s-.068.041-.087.07a.176.176 0 0 0-.029.098c0 .027.007.052.02.075s.035.043.063.062.061.038.102.055c.04.017.087.034.14.05.089.027.166.057.233.09s.124.071.17.113c.045.042.08.089.103.142s.035.113.035.18c0 .071-.014.134-.041.19s-.067.103-.119.142c-.052.039-.114.068-.186.088s-.153.03-.242.03c-.08 0-.16-.01-.238-.031s-.149-.054-.213-.097a.474.474 0 0 1-.209-.403h.336c0 .051.008.093.023.128s.038.063.066.085c.029.022.063.037.103.047s.084.015.132.015c.058 0 .106-.008.143-.025s.066-.039.084-.068a.175.175 0 0 0 .028-.098z" style="fill:"/></symbol><symbol id="icon-company-6" viewBox="0 0 32 32"><path fill="" d="M16.18 15.64a1.006 1.006 0 0 1-.206-.678v-.983c0-.301.068-.53.205-.687s.372-.235.705-.234c.313 0 .535.067.666.2.143.17.213.378.197.588v.231h-.56v-.234a1.171 1.171 0 0 0-.016-.229.22.22 0 0 0-.08-.136.325.325 0 0 0-.203-.053.34.34 0 0 0-.213.056.264.264 0 0 0-.093.15 1.17 1.17 0 0 0-.022.243v1.193a.608.608 0 0 0 .072.335c.028.035.067.064.112.081s.095.024.144.019a.302.302 0 0 0 .198-.054.235.235 0 0 0 .083-.145c.013-.079.019-.159.017-.239v-.242h.56v.221a.894.894 0 0 1-.194.618c-.129.146-.348.219-.67.219s-.566-.078-.704-.24zM18.511 15.65c-.141-.153-.212-.376-.212-.671v-1.034c0-.292.071-.513.212-.663s.378-.225.709-.224c.329 0 .564.075.706.224s.213.371.213.663v1.034c0 .292-.072.516-.216.67s-.378.231-.704.231-.567-.078-.709-.23zm.97-.248a.57.57 0 0 0 .067-.306V13.83a.566.566 0 0 0-.066-.3c-.028-.036-.068-.065-.114-.082s-.097-.024-.148-.018c-.05-.006-.102 0-.148.018s-.086.046-.115.082a.549.549 0 0 0-.067.3v1.272a.57.57 0 0 0 .067.306.363.363 0 0 0 .262.103.363.363 0 0 0 .262-.103v-.006zM20.813 13.088h.603l.453 1.908.464-1.908h.587l.059 2.754h-.433l-.046-1.914-.447 1.914h-.348l-.464-1.921-.043 1.921h-.438l.054-2.754zM23.654 13.088h.939c.541 0 .811.261.811.782 0 .499-.285.749-.854.748h-.32v1.224h-.579l.003-2.754zm.802 1.177c.057.006.115.002.17-.013s.106-.04.148-.074a.444.444 0 0 0 .083-.311.846.846 0 0 0-.028-.25c-.008-.027-.023-.053-.043-.076s-.045-.041-.073-.055a.608.608 0 0 0-.258-.044h-.225v.823h.225zM26.24 13.088h.622l.639 2.754h-.54l-.126-.635h-.555l-.13.635h-.548l.639-2.754zm.532 1.8-.217-1.156-.217 1.156h.433zM28.016 13.088h.406l.777 1.571v-1.571h.481v2.754h-.386l-.781-1.64v1.64h-.497l.001-2.754zM30.806 14.792l-.646-1.7h.544l.394 1.092.37-1.092H32l-.637 1.7v1.05h-.556v-1.05zM17.075 17.046v.144h-.473v1.119h-.198V17.19h-.475v-.144h1.146zM18.557 18.31h-.153a.064.064 0 0 1-.043-.012.066.066 0 0 1-.026-.029l-.137-.3h-.656l-.137.3a.08.08 0 0 1-.021.034.07.07 0 0 1-.043.012h-.153l.579-1.263h.202l.587 1.258zm-.959-.469h.547l-.232-.514a1.06 1.06 0 0 1-.043-.119l-.022.067-.021.053-.23.513zM19.556 18.186a.99.99 0 0 0 .109 0 .75.75 0 0 0 .176-.038c.026-.009.051-.02.078-.031v-.284h-.232c-.006 0-.011 0-.017-.002s-.01-.004-.014-.008c-.004-.003-.007-.006-.009-.01s-.003-.008-.003-.013v-.097h.45v.484a.795.795 0 0 1-.245.103 1 1 0 0 1-.145.026 1.911 1.911 0 0 1-.169.008.872.872 0 0 1-.292-.047.708.708 0 0 1-.232-.132.609.609 0 0 1-.149-.2.615.615 0 0 1-.053-.262.576.576 0 0 1 .201-.464.696.696 0 0 1 .232-.131.986.986 0 0 1 .311-.047c.054 0 .108.004.161.011a.813.813 0 0 1 .254.082c.035.02.069.042.101.066l-.056.078c-.004.007-.011.013-.019.017s-.017.007-.026.007a.075.075 0 0 1-.036-.01.822.822 0 0 1-.057-.03.764.764 0 0 0-.556-.038.438.438 0 0 0-.278.257.588.588 0 0 0 0 .421.447.447 0 0 0 .116.159.512.512 0 0 0 .169.1c.074.022.152.03.229.025zM21.404 18.165h.633v.144h-.826v-1.263h.198l-.005 1.119zM22.695 18.309h-.198v-1.263h.198v1.263zM23.432 17.052a.1.1 0 0 1 .03.023l.847.952a.338.338 0 0 1 0-.045V17.041h.173v1.268h-.1a.089.089 0 0 1-.043-.007.092.092 0 0 1-.031-.024l-.846-.951v.982h-.166v-1.263h.103c.011 0 .022.002.032.006zM25.942 17.046v.139h-.702v.417h.569v.134h-.569v.431h.702v.139h-.906v-1.26h.906zM5.173 9.246l8.801 2.156v7.556l-8.801-2.155V9.246zm-.565-.645v8.568l9.928 2.433v-8.567L4.608 8.601z" style="fill:var(--color4, )"/><path fill="" d="M9.93 23.58 0 21.145v-8.567l9.93 2.434v8.568zM4.773 9.149l8.686 2.129-3.694 3.188-8.687-2.13 3.695-3.187zm-.165-.548L0 12.577l9.93 2.434 4.607-3.976-9.928-2.434zM10.488 23.098l4.048-3.494-4.049-.993v4.487z" style="fill:"/></symbol>
<!--Modal-icon-->
<symbol id="icon-close" viewBox="0 0 32 32">
<path d="M32 3.223l-3.223-3.223-12.777 12.777-12.777-12.777-3.223 3.223 12.777 12.777-12.777 12.777 3.223 3.223 12.777-12.777 12.777 12.777 3.223-3.223-12.777-12.777 12.777-12.777z"></path>
</symbol>
<!--subscribe icon-->
<symbol id="icon-send" viewBox="0 0 38 32">
<path d="M38.4 0l-38.4 18 12.272 3.788 18.928-14.788-14.397 16.186 0.012 0.004-0.014-0.004v8.814l6.882-6.691 8.718 2.691 6-28z"></path>
</symbol>
<!--Modal Icon person-->
<symbol id="icon-person" viewBox="0 0 32 32">
<path d="M16 16c2.947 0 5.333-2.387 5.333-5.333s-2.387-5.333-5.333-5.333c-2.947 0-5.333 2.387-5.333 5.333s2.387 5.333 5.333 5.333zM16 18.667c-3.56 0-10.667 1.787-10.667 5.333v1.333c0 0.733 0.6 1.333 1.333 1.333h18.667c0.733 0 1.333-0.6 1.333-1.333v-1.333c0-3.547-7.107-5.333-10.667-5.333z"></path>
</symbol>
<symbol id="icon-email" viewBox="0 0 24 32">
<path d="M20 8h-16c-1.1 0-1.99 0.9-1.99 2l-0.010 12c0 1.1 0.9 2 2 2h16c1.1 0 2-0.9 2-2v-12c0-1.1-0.9-2-2-2zM19.6 12.25l-7.070 4.42c-0.32 0.2-0.74 0.2-1.060 0l-7.070-4.42c-0.25-0.16-0.4-0.43-0.4-0.72 0-0.67 0.73-1.070 1.3-0.72l6.7 4.19 6.7-4.19c0.57-0.35 1.3 0.050 1.3 0.72 0 0.29-0.15 0.56-0.4 0.72z"></path>
</symbol>
<symbol id="icon-phone" viewBox="0 0 24 32">
<path d="M19.635 18.487l-2.451-0.28c-0.589-0.067-1.167 0.135-1.582 0.55l-1.775 1.775c-2.731-1.389-4.969-3.618-6.359-6.359l1.785-1.785c0.415-0.415 0.618-0.994 0.55-1.582l-0.28-2.432c-0.116-0.975-0.936-1.708-1.92-1.708h-1.669c-1.090 0-1.997 0.907-1.93 1.997 0.511 8.24 7.102 14.821 15.332 15.332 1.090 0.068 1.997-0.839 1.997-1.93v-1.669c0.010-0.975-0.724-1.795-1.698-1.911z"></path>
</symbol>
<symbol id="checkbox" viewBox="0 0 40 32"><path d="M33.784 1.020c0.659-0.637 1.558-1.030 2.548-1.030 2.007 0 3.637 1.611 3.668 3.611l0 0.003c0.001 0.028 0.001 0.061 0.001 0.095 0 0.965-0.368 1.844-0.972 2.504l0.003-0.003-19.576 24.616c-0.674 0.728-1.635 1.182-2.702 1.182-0.495 0-0.967-0.098-1.398-0.275l0.024 0.009c-0.477-0.197-0.884-0.473-1.224-0.816l-0-0-12.984-13.052c-0.724-0.677-1.175-1.638-1.175-2.705 0-0.501 0.1-0.98 0.28-1.416l-0.009 0.025c0.564-1.367 1.887-2.312 3.43-2.312 0.018 0 0.035 0 0.053 0l-0.003-0c1.038 0.019 1.967 0.467 2.622 1.174l0.002 0.002 10.276 10.328 17.040-21.832c0.032-0.039 0.065-0.074 0.1-0.108l-0.004-0z"></path></symbol>
</defs></svg>